<mxfile host="app.diagrams.net" modified="2023-04-20T08:43:42.815Z" agent="Mozilla/5.0 (Windows NT 10.0; Win64; x64) AppleWebKit/537.36 (KHTML, like Gecko) Chrome/112.0.0.0 Safari/537.36 Edg/112.0.1722.48" etag="jL3ih_1li6fGR4lxEpfB" version="21.2.1" type="github">
  <diagram name="Page-1" id="GyIpPthO23DGb-_dUTAL">
    <mxGraphModel dx="1377" dy="916" grid="1" gridSize="10" guides="1" tooltips="1" connect="1" arrows="1" fold="1" page="1" pageScale="1" pageWidth="850" pageHeight="1100" math="0" shadow="0">
      <root>
        <mxCell id="0" />
        <mxCell id="1" parent="0" />
        <mxCell id="87gRsaUxfbmxpVkgvhbk-1" value="" style="verticalLabelPosition=bottom;html=1;verticalAlign=top;align=center;strokeColor=none;fillColor=#00BEF2;shape=mxgraph.azure.azure_active_directory;" parent="1" vertex="1">
          <mxGeometry x="530" y="90" width="67.5" height="70" as="geometry" />
        </mxCell>
        <mxCell id="87gRsaUxfbmxpVkgvhbk-2" value="" style="verticalLabelPosition=bottom;html=1;verticalAlign=top;align=center;strokeColor=none;fillColor=#00BEF2;shape=mxgraph.azure.azure_instance;" parent="1" vertex="1">
          <mxGeometry x="580" y="230" width="50" height="50" as="geometry" />
        </mxCell>
        <mxCell id="87gRsaUxfbmxpVkgvhbk-3" value="" style="sketch=0;outlineConnect=0;fontColor=#232F3E;gradientColor=none;fillColor=#BF0816;strokeColor=none;dashed=0;verticalLabelPosition=bottom;verticalAlign=top;align=center;html=1;fontSize=12;fontStyle=0;aspect=fixed;pointerEvents=1;shape=mxgraph.aws4.access_analyzer;" parent="1" vertex="1">
          <mxGeometry x="120" y="105" width="40.52" height="40" as="geometry" />
        </mxCell>
        <mxCell id="87gRsaUxfbmxpVkgvhbk-4" value="" style="outlineConnect=0;dashed=0;verticalLabelPosition=bottom;verticalAlign=top;align=center;html=1;shape=mxgraph.aws3.management_console;fillColor=#F58534;gradientColor=none;" parent="1" vertex="1">
          <mxGeometry x="70" y="70" width="40" height="40" as="geometry" />
        </mxCell>
        <mxCell id="87gRsaUxfbmxpVkgvhbk-5" value="" style="sketch=0;outlineConnect=0;fontColor=#232F3E;gradientColor=none;fillColor=#BF0816;strokeColor=none;dashed=0;verticalLabelPosition=bottom;verticalAlign=top;align=center;html=1;fontSize=12;fontStyle=0;aspect=fixed;pointerEvents=1;shape=mxgraph.aws4.ad_connector;" parent="1" vertex="1">
          <mxGeometry x="230" y="235" width="42.74" height="40" as="geometry" />
        </mxCell>
        <mxCell id="87gRsaUxfbmxpVkgvhbk-6" value="" style="outlineConnect=0;dashed=0;verticalLabelPosition=bottom;verticalAlign=top;align=center;html=1;shape=mxgraph.aws3.workspaces;fillColor=#D16A28;gradientColor=#F58435;gradientDirection=north;" parent="1" vertex="1">
          <mxGeometry x="110" y="225" width="40" height="50" as="geometry" />
        </mxCell>
        <mxCell id="87gRsaUxfbmxpVkgvhbk-7" value="" style="sketch=0;points=[[0,0,0],[0.25,0,0],[0.5,0,0],[0.75,0,0],[1,0,0],[0,1,0],[0.25,1,0],[0.5,1,0],[0.75,1,0],[1,1,0],[0,0.25,0],[0,0.5,0],[0,0.75,0],[1,0.25,0],[1,0.5,0],[1,0.75,0]];outlineConnect=0;fontColor=#232F3E;gradientColor=#60A337;gradientDirection=north;fillColor=#277116;strokeColor=#ffffff;dashed=0;verticalLabelPosition=bottom;verticalAlign=top;align=center;html=1;fontSize=12;fontStyle=0;aspect=fixed;shape=mxgraph.aws4.resourceIcon;resIcon=mxgraph.aws4.fsx_for_windows_file_server;" parent="1" vertex="1">
          <mxGeometry x="110" y="300" width="40" height="40" as="geometry" />
        </mxCell>
        <mxCell id="87gRsaUxfbmxpVkgvhbk-8" value="" style="endArrow=none;dashed=1;html=1;dashPattern=1 3;strokeWidth=2;rounded=0;endFill=0;startArrow=classicThin;startFill=1;" parent="1" edge="1">
          <mxGeometry width="50" height="50" relative="1" as="geometry">
            <mxPoint x="290" y="250" as="sourcePoint" />
            <mxPoint x="570" y="250" as="targetPoint" />
          </mxGeometry>
        </mxCell>
        <mxCell id="87gRsaUxfbmxpVkgvhbk-9" value="" style="endArrow=none;dashed=1;html=1;dashPattern=1 3;strokeWidth=2;rounded=0;entryX=0.75;entryY=0.79;entryDx=0;entryDy=0;entryPerimeter=0;" parent="1" target="87gRsaUxfbmxpVkgvhbk-1" edge="1">
          <mxGeometry width="50" height="50" relative="1" as="geometry">
            <mxPoint x="600" y="220" as="sourcePoint" />
            <mxPoint x="650" y="170" as="targetPoint" />
          </mxGeometry>
        </mxCell>
        <mxCell id="87gRsaUxfbmxpVkgvhbk-10" value="" style="rounded=0;whiteSpace=wrap;html=1;fillColor=none;" parent="1" vertex="1">
          <mxGeometry x="50" y="40" width="300" height="410" as="geometry" />
        </mxCell>
        <mxCell id="87gRsaUxfbmxpVkgvhbk-11" value="" style="rounded=0;whiteSpace=wrap;html=1;fillColor=none;" parent="1" vertex="1">
          <mxGeometry x="440" y="40" width="300" height="410" as="geometry" />
        </mxCell>
        <mxCell id="87gRsaUxfbmxpVkgvhbk-13" value="" style="endArrow=classic;dashed=1;html=1;dashPattern=1 3;strokeWidth=2;rounded=0;endFill=1;" parent="1" edge="1">
          <mxGeometry width="50" height="50" relative="1" as="geometry">
            <mxPoint x="160" y="254.5" as="sourcePoint" />
            <mxPoint x="230" y="254.5" as="targetPoint" />
            <Array as="points">
              <mxPoint x="180" y="254.5" />
            </Array>
          </mxGeometry>
        </mxCell>
        <mxCell id="87gRsaUxfbmxpVkgvhbk-16" value="" style="endArrow=classicThin;dashed=1;html=1;dashPattern=1 3;strokeWidth=2;rounded=0;endSize=16;startArrow=none;startFill=0;endFill=1;" parent="1" edge="1">
          <mxGeometry width="50" height="50" relative="1" as="geometry">
            <mxPoint x="170" y="330" as="sourcePoint" />
            <mxPoint x="220" y="280" as="targetPoint" />
          </mxGeometry>
        </mxCell>
        <mxCell id="87gRsaUxfbmxpVkgvhbk-18" value="" style="endArrow=none;dashed=1;html=1;dashPattern=1 3;strokeWidth=2;rounded=0;startArrow=classicThin;startFill=1;" parent="1" edge="1">
          <mxGeometry width="50" height="50" relative="1" as="geometry">
            <mxPoint x="190" y="124.5" as="sourcePoint" />
            <mxPoint x="470" y="124.5" as="targetPoint" />
          </mxGeometry>
        </mxCell>
        <mxCell id="87gRsaUxfbmxpVkgvhbk-19" value="" style="sketch=0;aspect=fixed;pointerEvents=1;shadow=0;dashed=0;html=1;strokeColor=none;labelPosition=center;verticalLabelPosition=bottom;verticalAlign=top;align=center;fillColor=#00188D;shape=mxgraph.azure.user" parent="1" vertex="1">
          <mxGeometry x="530" y="145" width="28.2" height="30" as="geometry" />
        </mxCell>
        <mxCell id="87gRsaUxfbmxpVkgvhbk-20" value="Azure AD" style="text;strokeColor=none;align=center;fillColor=none;html=1;verticalAlign=middle;whiteSpace=wrap;rounded=0;" parent="1" vertex="1">
          <mxGeometry x="610" y="115" width="60" height="30" as="geometry" />
        </mxCell>
        <mxCell id="87gRsaUxfbmxpVkgvhbk-21" value="Azure AD DS" style="text;strokeColor=none;align=center;fillColor=none;html=1;verticalAlign=middle;whiteSpace=wrap;rounded=0;" parent="1" vertex="1">
          <mxGeometry x="650" y="260" width="60" height="30" as="geometry" />
        </mxCell>
        <mxCell id="87gRsaUxfbmxpVkgvhbk-22" value="AD Connector" style="text;strokeColor=none;align=center;fillColor=none;html=1;verticalAlign=middle;whiteSpace=wrap;rounded=0;" parent="1" vertex="1">
          <mxGeometry x="240" y="280" width="60" height="30" as="geometry" />
        </mxCell>
        <mxCell id="87gRsaUxfbmxpVkgvhbk-23" value="IAM Identity Ceter" style="text;strokeColor=none;align=center;fillColor=none;html=1;verticalAlign=middle;whiteSpace=wrap;rounded=0;" parent="1" vertex="1">
          <mxGeometry x="150" y="145" width="70" height="30" as="geometry" />
        </mxCell>
        <mxCell id="87gRsaUxfbmxpVkgvhbk-24" value="User" style="text;strokeColor=none;align=center;fillColor=none;html=1;verticalAlign=middle;whiteSpace=wrap;rounded=0;" parent="1" vertex="1">
          <mxGeometry x="520" y="180" width="60" height="30" as="geometry" />
        </mxCell>
        <mxCell id="87gRsaUxfbmxpVkgvhbk-25" value="Console&lt;br&gt;" style="text;strokeColor=none;align=center;fillColor=none;html=1;verticalAlign=middle;whiteSpace=wrap;rounded=0;" parent="1" vertex="1">
          <mxGeometry x="110" y="70" width="60" height="30" as="geometry" />
        </mxCell>
      </root>
    </mxGraphModel>
  </diagram>
</mxfile>
